{
	"patcher" : 	{
		"fileversion" : 1,
		"appversion" : 		{
			"major" : 9,
			"minor" : 0,
			"revision" : 0,
			"architecture" : "x64",
			"modernui" : 1
		}
,
		"classnamespace" : "box",
		"rect" : [ 96.0, 122.0, 868.0, 722.0 ],
		"openinpresentation" : 1,
		"gridsize" : [ 15.0, 15.0 ],
		"boxes" : [ 			{
				"box" : 				{
					"comment" : "",
					"id" : "obj-5",
					"index" : 1,
					"maxclass" : "inlet",
					"numinlets" : 0,
					"numoutlets" : 1,
					"outlettype" : [ "" ],
					"patching_rect" : [ 400.70703125, 16.0, 30.0, 30.0 ]
				}

			}
, 			{
				"box" : 				{
					"hidden" : 1,
					"id" : "obj-3",
					"maxclass" : "live.comment",
					"numinlets" : 1,
					"numoutlets" : 0,
					"patching_rect" : [ 371.83203125, 496.0, 150.0, 18.0 ],
					"presentation" : 1,
					"presentation_rect" : [ 232.0, 175.0, 19.0, 18.0 ],
					"saved_attribute_attributes" : 					{
						"textcolor" : 						{
							"expression" : ""
						}

					}
,
					"text" : "Q",
					"textcolor" : [ 0.85, 0.85, 0.85, 1.0 ],
					"textjustification" : 0
				}

			}
, 			{
				"box" : 				{
					"hidden" : 1,
					"id" : "obj-2",
					"maxclass" : "live.comment",
					"numinlets" : 1,
					"numoutlets" : 0,
					"patching_rect" : [ 371.83203125, 447.0, 150.0, 18.0 ],
					"presentation" : 1,
					"presentation_rect" : [ 95.0, 175.0, 28.0, 18.0 ],
					"saved_attribute_attributes" : 					{
						"textcolor" : 						{
							"expression" : ""
						}

					}
,
					"text" : "Gain",
					"textcolor" : [ 0.85, 0.85, 0.85, 1.0 ],
					"textjustification" : 0
				}

			}
, 			{
				"box" : 				{
					"hidden" : 1,
					"id" : "obj-1",
					"maxclass" : "live.comment",
					"numinlets" : 1,
					"numoutlets" : 0,
					"patching_rect" : [ 371.83203125, 470.0, 150.0, 18.0 ],
					"presentation" : 1,
					"presentation_rect" : [ 0.0, 175.0, 28.0, 18.0 ],
					"saved_attribute_attributes" : 					{
						"textcolor" : 						{
							"expression" : ""
						}

					}
,
					"text" : "Freq",
					"textcolor" : [ 0.85, 0.85, 0.85, 1.0 ],
					"textjustification" : 0
				}

			}
, 			{
				"box" : 				{
					"id" : "obj-83",
					"maxclass" : "newobj",
					"numinlets" : 1,
					"numoutlets" : 0,
					"patching_rect" : [ 885.0, 382.0, 74.0, 22.0 ],
					"text" : "s eq_high_q"
				}

			}
, 			{
				"box" : 				{
					"id" : "obj-84",
					"maxclass" : "newobj",
					"numinlets" : 1,
					"numoutlets" : 0,
					"patching_rect" : [ 809.0, 382.0, 71.0, 22.0 ],
					"text" : "s eq_mid_q"
				}

			}
, 			{
				"box" : 				{
					"id" : "obj-85",
					"maxclass" : "newobj",
					"numinlets" : 1,
					"numoutlets" : 0,
					"patching_rect" : [ 735.0, 382.0, 69.0, 22.0 ],
					"text" : "s eq_low_q"
				}

			}
, 			{
				"box" : 				{
					"id" : "obj-79",
					"maxclass" : "newobj",
					"numinlets" : 1,
					"numoutlets" : 0,
					"patching_rect" : [ 622.0, 382.0, 90.0, 22.0 ],
					"text" : "s eq_high_gain"
				}

			}
, 			{
				"box" : 				{
					"id" : "obj-80",
					"maxclass" : "newobj",
					"numinlets" : 1,
					"numoutlets" : 0,
					"patching_rect" : [ 528.0, 382.0, 87.0, 22.0 ],
					"text" : "s eq_mid_gain"
				}

			}
, 			{
				"box" : 				{
					"id" : "obj-81",
					"maxclass" : "newobj",
					"numinlets" : 1,
					"numoutlets" : 0,
					"patching_rect" : [ 439.5, 382.0, 85.0, 22.0 ],
					"text" : "s eq_low_gain"
				}

			}
, 			{
				"box" : 				{
					"id" : "obj-78",
					"maxclass" : "newobj",
					"numinlets" : 1,
					"numoutlets" : 0,
					"patching_rect" : [ 331.95703125, 382.0, 88.0, 22.0 ],
					"text" : "s eq_high_freq"
				}

			}
, 			{
				"box" : 				{
					"id" : "obj-73",
					"maxclass" : "newobj",
					"numinlets" : 1,
					"numoutlets" : 0,
					"patching_rect" : [ 240.45703125, 382.0, 85.0, 22.0 ],
					"text" : "s eq_mid_freq"
				}

			}
, 			{
				"box" : 				{
					"id" : "obj-72",
					"maxclass" : "newobj",
					"numinlets" : 1,
					"numoutlets" : 0,
					"patching_rect" : [ 154.5, 382.0, 83.0, 22.0 ],
					"text" : "s eq_low_freq"
				}

			}
, 			{
				"box" : 				{
					"annotation" : "Displays the EQ curve and wet output of the Reverb. Double clicking a marble will reset its gain to zero. Double clicking whilst holding the command key (mac) or control key (windows) will reset it to its default position. ",
					"border" : 0,
					"filename" : "Macintosh HD:/Users/pierpaoloovarini/Desktop/Temporaneo/onda_rebuild/onda_rebuild/ondacielo_Eq_GUI.js",
					"hidden" : 1,
					"id" : "obj-109",
					"maxclass" : "jsui",
					"numinlets" : 1,
					"numoutlets" : 1,
					"outlettype" : [ "" ],
					"parameter_enable" : 0,
					"patching_rect" : [ 78.70703125, 16.0, 262.0, 96.0 ],
					"presentation" : 1,
					"presentation_rect" : [ 0.0, 0.0, 280.263155221939087, 157.236840605735779 ],
					"varname" : "EQ Frequency Display"
				}

			}
, 			{
				"box" : 				{
					"activebgcolor" : [ 0.235294117647059, 0.235294117647059, 0.235294117647059, 0.0 ],
					"activeslidercolor" : [ 0.882352941176471, 0.882352941176471, 0.882352941176471, 1.0 ],
					"annotation" : "Adjusts the Resonance of the Highshelf input filter. Moderate to lower settings sound more natural.",
					"appearance" : 2,
					"bordercolor" : [ 0.079348079365577, 0.07934804057877, 0.079348050547289, 1.0 ],
					"focusbordercolor" : [ 0.447058823529412, 0.447058823529412, 0.447058823529412, 0.0 ],
					"fontsize" : 11.0,
					"hidden" : 1,
					"id" : "obj-58",
					"lcdbgcolor" : [ 0.094117647058824, 0.094117647058824, 0.094117647058824, 1.0 ],
					"lcdcolor" : [ 0.101960784313725, 0.596078431372549, 0.815686274509804, 1.0 ],
					"maxclass" : "live.numbox",
					"numinlets" : 1,
					"numoutlets" : 2,
					"outlettype" : [ "", "float" ],
					"parameter_enable" : 1,
					"patching_rect" : [ 722.70703125, 259.5, 54.0, 17.0 ],
					"presentation" : 1,
					"presentation_rect" : [ 246.0, 176.0, 32.0, 17.0 ],
					"saved_attribute_attributes" : 					{
						"activebgcolor" : 						{
							"expression" : ""
						}
,
						"activeslidercolor" : 						{
							"expression" : ""
						}
,
						"bordercolor" : 						{
							"expression" : ""
						}
,
						"focusbordercolor" : 						{
							"expression" : ""
						}
,
						"lcdbgcolor" : 						{
							"expression" : ""
						}
,
						"lcdcolor" : 						{
							"expression" : ""
						}
,
						"textcolor" : 						{
							"expression" : ""
						}
,
						"valueof" : 						{
							"parameter_initial" : [ 1 ],
							"parameter_initial_enable" : 1,
							"parameter_invisible" : 2,
							"parameter_linknames" : 1,
							"parameter_longname" : "live.numbox[27]",
							"parameter_mapping_index" : 18,
							"parameter_mmax" : 2.0,
							"parameter_mmin" : 0.05,
							"parameter_modmode" : 2,
							"parameter_osc_name" : "<default>",
							"parameter_shortname" : "Hi S",
							"parameter_type" : 0,
							"parameter_unitstyle" : 1
						}

					}
,
					"textcolor" : [ 0.079348079365577, 0.07934804057877, 0.079348050547289, 1.0 ],
					"textjustification" : 0,
					"varname" : "live.numbox[10]"
				}

			}
, 			{
				"box" : 				{
					"activebgcolor" : [ 0.235294117647059, 0.235294117647059, 0.235294117647059, 0.0 ],
					"activeslidercolor" : [ 0.882352941176471, 0.882352941176471, 0.882352941176471, 1.0 ],
					"annotation" : "Adjusts the Bandwidth of the Peak input filter. Moderate to lower settings sound more natural.",
					"appearance" : 2,
					"bordercolor" : [ 0.079348079365577, 0.07934804057877, 0.079348050547289, 1.0 ],
					"focusbordercolor" : [ 0.447058823529412, 0.447058823529412, 0.447058823529412, 0.0 ],
					"fontsize" : 11.0,
					"hidden" : 1,
					"id" : "obj-57",
					"lcdbgcolor" : [ 0.094117647058824, 0.094117647058824, 0.094117647058824, 1.0 ],
					"lcdcolor" : [ 0.101960784313725, 0.596078431372549, 0.815686274509804, 1.0 ],
					"maxclass" : "live.numbox",
					"numinlets" : 1,
					"numoutlets" : 2,
					"outlettype" : [ "", "float" ],
					"parameter_enable" : 1,
					"patching_rect" : [ 649.45703125, 259.5, 54.0, 17.0 ],
					"presentation" : 1,
					"presentation_rect" : [ 246.0, 176.0, 32.0, 17.0 ],
					"saved_attribute_attributes" : 					{
						"activebgcolor" : 						{
							"expression" : ""
						}
,
						"activeslidercolor" : 						{
							"expression" : ""
						}
,
						"bordercolor" : 						{
							"expression" : ""
						}
,
						"focusbordercolor" : 						{
							"expression" : ""
						}
,
						"lcdbgcolor" : 						{
							"expression" : ""
						}
,
						"lcdcolor" : 						{
							"expression" : ""
						}
,
						"textcolor" : 						{
							"expression" : ""
						}
,
						"valueof" : 						{
							"parameter_initial" : [ 0.71 ],
							"parameter_initial_enable" : 1,
							"parameter_invisible" : 2,
							"parameter_linknames" : 1,
							"parameter_longname" : "live.numbox[26]",
							"parameter_mapping_index" : 14,
							"parameter_mmax" : 2.0,
							"parameter_mmin" : 0.05,
							"parameter_modmode" : 2,
							"parameter_osc_name" : "<default>",
							"parameter_shortname" : "Mid Q",
							"parameter_type" : 0,
							"parameter_unitstyle" : 1
						}

					}
,
					"textcolor" : [ 0.079348079365577, 0.07934804057877, 0.079348050547289, 1.0 ],
					"textjustification" : 0,
					"varname" : "live.numbox[9]"
				}

			}
, 			{
				"box" : 				{
					"activebgcolor" : [ 0.235294117647059, 0.235294117647059, 0.235294117647059, 0.0 ],
					"activeslidercolor" : [ 0.882352941176471, 0.882352941176471, 0.882352941176471, 1.0 ],
					"annotation" : "Adjusts the Slope of the Lowshelf input filter. Moderate to lower settings sound more natural.",
					"appearance" : 2,
					"bordercolor" : [ 0.079348079365577, 0.07934804057877, 0.079348050547289, 1.0 ],
					"focusbordercolor" : [ 0.447058823529412, 0.447058823529412, 0.447058823529412, 0.0 ],
					"fontsize" : 11.0,
					"hidden" : 1,
					"id" : "obj-56",
					"lcdbgcolor" : [ 0.094117647058824, 0.094117647058824, 0.094117647058824, 1.0 ],
					"lcdcolor" : [ 0.101960784313725, 0.596078431372549, 0.815686274509804, 1.0 ],
					"maxclass" : "live.numbox",
					"numinlets" : 1,
					"numoutlets" : 2,
					"outlettype" : [ "", "float" ],
					"parameter_enable" : 1,
					"patching_rect" : [ 576.20703125, 260.5, 54.0, 17.0 ],
					"presentation" : 1,
					"presentation_rect" : [ 246.0, 176.0, 32.0, 17.0 ],
					"saved_attribute_attributes" : 					{
						"activebgcolor" : 						{
							"expression" : ""
						}
,
						"activeslidercolor" : 						{
							"expression" : ""
						}
,
						"bordercolor" : 						{
							"expression" : ""
						}
,
						"focusbordercolor" : 						{
							"expression" : ""
						}
,
						"lcdbgcolor" : 						{
							"expression" : ""
						}
,
						"lcdcolor" : 						{
							"expression" : ""
						}
,
						"textcolor" : 						{
							"expression" : ""
						}
,
						"valueof" : 						{
							"parameter_initial" : [ 1 ],
							"parameter_initial_enable" : 1,
							"parameter_invisible" : 2,
							"parameter_linknames" : 1,
							"parameter_longname" : "live.numbox[25]",
							"parameter_mapping_index" : 17,
							"parameter_mmax" : 2.0,
							"parameter_mmin" : 0.05,
							"parameter_modmode" : 2,
							"parameter_osc_name" : "<default>",
							"parameter_shortname" : "Lo S",
							"parameter_type" : 0,
							"parameter_unitstyle" : 1
						}

					}
,
					"textcolor" : [ 0.079348079365577, 0.07934804057877, 0.079348050547289, 1.0 ],
					"textjustification" : 0,
					"varname" : "live.numbox[8]"
				}

			}
, 			{
				"box" : 				{
					"activebgcolor" : [ 0.235294117647059, 0.235294117647059, 0.235294117647059, 0.0 ],
					"activeslidercolor" : [ 0.882352941176471, 0.882352941176471, 0.882352941176471, 1.0 ],
					"annotation" : "Adjusts the amount of boost or attenuation of the Highshelf input filter. Adjusting the Highshelf gain can make the reverb brighter or duller. Try subtle settings first.",
					"appearance" : 2,
					"bordercolor" : [ 0.079348079365577, 0.07934804057877, 0.079348050547289, 1.0 ],
					"focusbordercolor" : [ 0.447058823529412, 0.447058823529412, 0.447058823529412, 0.0 ],
					"fontsize" : 11.0,
					"hidden" : 1,
					"id" : "obj-110",
					"lcdbgcolor" : [ 0.094117647058824, 0.094117647058824, 0.094117647058824, 1.0 ],
					"lcdcolor" : [ 0.101960784313725, 0.596078431372549, 0.815686274509804, 1.0 ],
					"maxclass" : "live.numbox",
					"numinlets" : 1,
					"numoutlets" : 2,
					"outlettype" : [ "", "float" ],
					"parameter_enable" : 1,
					"patching_rect" : [ 473.95703125, 260.5, 55.0, 17.0 ],
					"presentation" : 1,
					"presentation_rect" : [ 121.0, 176.0, 44.0, 17.0 ],
					"saved_attribute_attributes" : 					{
						"activebgcolor" : 						{
							"expression" : ""
						}
,
						"activeslidercolor" : 						{
							"expression" : ""
						}
,
						"bordercolor" : 						{
							"expression" : ""
						}
,
						"focusbordercolor" : 						{
							"expression" : ""
						}
,
						"lcdbgcolor" : 						{
							"expression" : ""
						}
,
						"lcdcolor" : 						{
							"expression" : ""
						}
,
						"textcolor" : 						{
							"expression" : ""
						}
,
						"valueof" : 						{
							"parameter_initial" : [ 0.0 ],
							"parameter_initial_enable" : 1,
							"parameter_invisible" : 2,
							"parameter_linknames" : 1,
							"parameter_longname" : "live.numbox[21]",
							"parameter_mapping_index" : 16,
							"parameter_mmax" : 18.0,
							"parameter_mmin" : -18.0,
							"parameter_modmode" : 2,
							"parameter_osc_name" : "<default>",
							"parameter_shortname" : "Hi Gain",
							"parameter_type" : 0,
							"parameter_unitstyle" : 4
						}

					}
,
					"textcolor" : [ 0.079348079365577, 0.07934804057877, 0.079348050547289, 1.0 ],
					"textjustification" : 0,
					"varname" : "live.numbox[7]"
				}

			}
, 			{
				"box" : 				{
					"activebgcolor" : [ 0.235294117647059, 0.235294117647059, 0.235294117647059, 0.0 ],
					"activeslidercolor" : [ 0.882352941176471, 0.882352941176471, 0.882352941176471, 1.0 ],
					"annotation" : "Adjusts the amount of boost or attenuation of the Peak Input Filter.  Try subtle settings first.",
					"appearance" : 2,
					"bordercolor" : [ 0.079348079365577, 0.07934804057877, 0.079348050547289, 1.0 ],
					"focusbordercolor" : [ 0.447058823529412, 0.447058823529412, 0.447058823529412, 0.0 ],
					"fontsize" : 11.0,
					"hidden" : 1,
					"id" : "obj-111",
					"lcdbgcolor" : [ 0.094117647058824, 0.094117647058824, 0.094117647058824, 1.0 ],
					"lcdcolor" : [ 0.101960784313725, 0.596078431372549, 0.815686274509804, 1.0 ],
					"maxclass" : "live.numbox",
					"numinlets" : 1,
					"numoutlets" : 2,
					"outlettype" : [ "", "float" ],
					"parameter_enable" : 1,
					"patching_rect" : [ 400.70703125, 260.5, 55.0, 17.0 ],
					"presentation" : 1,
					"presentation_rect" : [ 121.0, 176.0, 44.0, 17.0 ],
					"saved_attribute_attributes" : 					{
						"activebgcolor" : 						{
							"expression" : ""
						}
,
						"activeslidercolor" : 						{
							"expression" : ""
						}
,
						"bordercolor" : 						{
							"expression" : ""
						}
,
						"focusbordercolor" : 						{
							"expression" : ""
						}
,
						"lcdbgcolor" : 						{
							"expression" : ""
						}
,
						"lcdcolor" : 						{
							"expression" : ""
						}
,
						"textcolor" : 						{
							"expression" : ""
						}
,
						"valueof" : 						{
							"parameter_initial" : [ 0.0 ],
							"parameter_initial_enable" : 1,
							"parameter_invisible" : 2,
							"parameter_linknames" : 1,
							"parameter_longname" : "live.numbox[24]",
							"parameter_mapping_index" : 13,
							"parameter_mmax" : 18.0,
							"parameter_mmin" : -18.0,
							"parameter_modmode" : 2,
							"parameter_osc_name" : "<default>",
							"parameter_shortname" : "Mid Gain",
							"parameter_type" : 0,
							"parameter_unitstyle" : 4
						}

					}
,
					"textcolor" : [ 0.079348079365577, 0.07934804057877, 0.079348050547289, 1.0 ],
					"textjustification" : 0,
					"varname" : "live.numbox[6]"
				}

			}
, 			{
				"box" : 				{
					"activebgcolor" : [ 0.235294117647059, 0.235294117647059, 0.235294117647059, 0.0 ],
					"activeslidercolor" : [ 0.882352941176471, 0.882352941176471, 0.882352941176471, 1.0 ],
					"annotation" : "Adjusts the amount of boost or attenuation of the Lowshelf input filter. Rolling-off low frequencies can prevent muddy reverb. Try subtle settings first.",
					"appearance" : 2,
					"bordercolor" : [ 0.079348079365577, 0.07934804057877, 0.079348050547289, 1.0 ],
					"focusbordercolor" : [ 0.447058823529412, 0.447058823529412, 0.447058823529412, 0.0 ],
					"fontsize" : 11.0,
					"hidden" : 1,
					"id" : "obj-112",
					"lcdbgcolor" : [ 0.094117647058824, 0.094117647058824, 0.094117647058824, 1.0 ],
					"lcdcolor" : [ 0.101960784313725, 0.596078431372549, 0.815686274509804, 1.0 ],
					"maxclass" : "live.numbox",
					"numinlets" : 1,
					"numoutlets" : 2,
					"outlettype" : [ "", "float" ],
					"parameter_enable" : 1,
					"patching_rect" : [ 327.45703125, 260.5, 55.0, 17.0 ],
					"presentation" : 1,
					"presentation_rect" : [ 121.0, 176.0, 44.0, 17.0 ],
					"saved_attribute_attributes" : 					{
						"activebgcolor" : 						{
							"expression" : ""
						}
,
						"activeslidercolor" : 						{
							"expression" : ""
						}
,
						"bordercolor" : 						{
							"expression" : ""
						}
,
						"focusbordercolor" : 						{
							"expression" : ""
						}
,
						"lcdbgcolor" : 						{
							"expression" : ""
						}
,
						"lcdcolor" : 						{
							"expression" : ""
						}
,
						"textcolor" : 						{
							"expression" : ""
						}
,
						"valueof" : 						{
							"parameter_initial" : [ 0.0 ],
							"parameter_initial_enable" : 1,
							"parameter_invisible" : 2,
							"parameter_linknames" : 1,
							"parameter_longname" : "live.numbox[5]",
							"parameter_mapping_index" : 11,
							"parameter_mmax" : 18.0,
							"parameter_mmin" : -18.0,
							"parameter_modmode" : 2,
							"parameter_osc_name" : "<default>",
							"parameter_shortname" : "Lo Gain",
							"parameter_type" : 0,
							"parameter_unitstyle" : 4
						}

					}
,
					"textcolor" : [ 0.079348079365577, 0.07934804057877, 0.079348050547289, 1.0 ],
					"textjustification" : 0,
					"varname" : "live.numbox[5]"
				}

			}
, 			{
				"box" : 				{
					"activebgcolor" : [ 0.235294117647059, 0.235294117647059, 0.235294117647059, 0.0 ],
					"activeslidercolor" : [ 0.882352941176471, 0.882352941176471, 0.882352941176471, 1.0 ],
					"annotation" : "Sets the center frequency of the Highshelf input filter.",
					"appearance" : 2,
					"bordercolor" : [ 0.079348079365577, 0.07934804057877, 0.079348050547289, 1.0 ],
					"focusbordercolor" : [ 0.447058823529412, 0.447058823529412, 0.447058823529412, 0.0 ],
					"fontsize" : 11.0,
					"hidden" : 1,
					"id" : "obj-49",
					"lcdbgcolor" : [ 0.094117647058824, 0.094117647058824, 0.094117647058824, 1.0 ],
					"lcdcolor" : [ 0.101960784313725, 0.596078431372549, 0.815686274509804, 1.0 ],
					"maxclass" : "live.numbox",
					"numinlets" : 1,
					"numoutlets" : 2,
					"outlettype" : [ "", "float" ],
					"parameter_enable" : 1,
					"patching_rect" : [ 225.20703125, 260.5, 56.0, 17.0 ],
					"presentation" : 1,
					"presentation_rect" : [ 28.0, 176.0, 54.0, 17.0 ],
					"saved_attribute_attributes" : 					{
						"activebgcolor" : 						{
							"expression" : ""
						}
,
						"activeslidercolor" : 						{
							"expression" : ""
						}
,
						"bordercolor" : 						{
							"expression" : ""
						}
,
						"focusbordercolor" : 						{
							"expression" : ""
						}
,
						"lcdbgcolor" : 						{
							"expression" : ""
						}
,
						"lcdcolor" : 						{
							"expression" : ""
						}
,
						"textcolor" : 						{
							"expression" : ""
						}
,
						"valueof" : 						{
							"parameter_exponent" : 4.0,
							"parameter_initial" : [ 10000 ],
							"parameter_initial_enable" : 1,
							"parameter_invisible" : 2,
							"parameter_linknames" : 1,
							"parameter_longname" : "live.numbox[18]",
							"parameter_mapping_index" : 15,
							"parameter_mmax" : 18000.0,
							"parameter_mmin" : 30.0,
							"parameter_modmode" : 2,
							"parameter_osc_name" : "<default>",
							"parameter_shortname" : "Hi Freq",
							"parameter_type" : 0,
							"parameter_unitstyle" : 3
						}

					}
,
					"textcolor" : [ 0.079348079365577, 0.07934804057877, 0.079348050547289, 1.0 ],
					"textjustification" : 0,
					"varname" : "live.numbox[2]"
				}

			}
, 			{
				"box" : 				{
					"activebgcolor" : [ 0.235294117647059, 0.235294117647059, 0.235294117647059, 0.0 ],
					"activeslidercolor" : [ 0.882352941176471, 0.882352941176471, 0.882352941176471, 1.0 ],
					"annotation" : "Sets the center frequency of the Peak input filter.",
					"appearance" : 2,
					"bordercolor" : [ 0.079348079365577, 0.07934804057877, 0.079348050547289, 1.0 ],
					"focusbordercolor" : [ 0.447058823529412, 0.447058823529412, 0.447058823529412, 0.0 ],
					"fontsize" : 11.0,
					"hidden" : 1,
					"id" : "obj-114",
					"lcdbgcolor" : [ 0.094117647058824, 0.094117647058824, 0.094117647058824, 1.0 ],
					"lcdcolor" : [ 0.101960784313725, 0.596078431372549, 0.815686274509804, 1.0 ],
					"maxclass" : "live.numbox",
					"numinlets" : 1,
					"numoutlets" : 2,
					"outlettype" : [ "", "float" ],
					"parameter_enable" : 1,
					"patching_rect" : [ 151.95703125, 260.5, 55.0, 17.0 ],
					"presentation" : 1,
					"presentation_rect" : [ 28.0, 176.0, 54.0, 17.0 ],
					"saved_attribute_attributes" : 					{
						"activebgcolor" : 						{
							"expression" : ""
						}
,
						"activeslidercolor" : 						{
							"expression" : ""
						}
,
						"bordercolor" : 						{
							"expression" : ""
						}
,
						"focusbordercolor" : 						{
							"expression" : ""
						}
,
						"lcdbgcolor" : 						{
							"expression" : ""
						}
,
						"lcdcolor" : 						{
							"expression" : ""
						}
,
						"textcolor" : 						{
							"expression" : ""
						}
,
						"valueof" : 						{
							"parameter_exponent" : 4.0,
							"parameter_initial" : [ 1000 ],
							"parameter_initial_enable" : 1,
							"parameter_invisible" : 2,
							"parameter_linknames" : 1,
							"parameter_longname" : "live.numbox[17]",
							"parameter_mapping_index" : 12,
							"parameter_mmax" : 18000.0,
							"parameter_mmin" : 30.0,
							"parameter_modmode" : 2,
							"parameter_osc_name" : "<default>",
							"parameter_shortname" : "Mid Freq",
							"parameter_type" : 0,
							"parameter_unitstyle" : 3
						}

					}
,
					"textcolor" : [ 0.079348079365577, 0.07934804057877, 0.079348050547289, 1.0 ],
					"textjustification" : 0,
					"varname" : "live.numbox[4]"
				}

			}
, 			{
				"box" : 				{
					"activebgcolor" : [ 0.235294117647059, 0.235294117647059, 0.235294117647059, 0.0 ],
					"activeslidercolor" : [ 0.882352941176471, 0.882352941176471, 0.882352941176471, 1.0 ],
					"annotation" : "Sets the center frequency of the Lowshelf input filter.",
					"appearance" : 2,
					"bordercolor" : [ 0.079348079365577, 0.07934804057877, 0.079348050547289, 1.0 ],
					"focusbordercolor" : [ 0.447058823529412, 0.447058823529412, 0.447058823529412, 0.0 ],
					"fontsize" : 11.0,
					"hidden" : 1,
					"id" : "obj-115",
					"lcdbgcolor" : [ 0.094117647058824, 0.094117647058824, 0.094117647058824, 1.0 ],
					"lcdcolor" : [ 0.101960784313725, 0.596078431372549, 0.815686274509804, 1.0 ],
					"maxclass" : "live.numbox",
					"numinlets" : 1,
					"numoutlets" : 2,
					"outlettype" : [ "", "float" ],
					"parameter_enable" : 1,
					"patching_rect" : [ 78.70703125, 260.5, 55.0, 17.0 ],
					"presentation" : 1,
					"presentation_rect" : [ 28.0, 176.0, 53.0, 17.0 ],
					"saved_attribute_attributes" : 					{
						"activebgcolor" : 						{
							"expression" : ""
						}
,
						"activeslidercolor" : 						{
							"expression" : ""
						}
,
						"bordercolor" : 						{
							"expression" : ""
						}
,
						"focusbordercolor" : 						{
							"expression" : ""
						}
,
						"lcdbgcolor" : 						{
							"expression" : ""
						}
,
						"lcdcolor" : 						{
							"expression" : ""
						}
,
						"textcolor" : 						{
							"expression" : ""
						}
,
						"valueof" : 						{
							"parameter_exponent" : 4.0,
							"parameter_initial" : [ 100.0 ],
							"parameter_initial_enable" : 1,
							"parameter_invisible" : 2,
							"parameter_linknames" : 1,
							"parameter_longname" : "live.numbox[23]",
							"parameter_mapping_index" : 10,
							"parameter_mmax" : 18000.0,
							"parameter_mmin" : 30.0,
							"parameter_modmode" : 2,
							"parameter_osc_name" : "<default>",
							"parameter_shortname" : "Lo Freq",
							"parameter_type" : 0,
							"parameter_unitstyle" : 3
						}

					}
,
					"textcolor" : [ 0.079348079365577, 0.07934804057877, 0.079348050547289, 1.0 ],
					"textjustification" : 0,
					"varname" : "live.numbox[1]"
				}

			}
, 			{
				"box" : 				{
					"fontname" : "Arial Bold",
					"fontsize" : 10.0,
					"id" : "obj-64",
					"maxclass" : "newobj",
					"numinlets" : 1,
					"numoutlets" : 1,
					"outlettype" : [ "" ],
					"patcher" : 					{
						"fileversion" : 1,
						"appversion" : 						{
							"major" : 9,
							"minor" : 0,
							"revision" : 0,
							"architecture" : "x64",
							"modernui" : 1
						}
,
						"classnamespace" : "box",
						"rect" : [ 134.0, 172.0, 494.0, 367.0 ],
						"gridsize" : [ 15.0, 15.0 ],
						"boxes" : [ 							{
								"box" : 								{
									"fontname" : "Arial Bold",
									"fontsize" : 10.0,
									"id" : "obj-54",
									"maxclass" : "newobj",
									"numinlets" : 1,
									"numoutlets" : 1,
									"outlettype" : [ "" ],
									"patching_rect" : [ 415.0, 240.0, 65.0, 20.0 ],
									"text" : "prepend qs"
								}

							}
, 							{
								"box" : 								{
									"fontname" : "Arial Bold",
									"fontsize" : 10.0,
									"id" : "obj-50",
									"maxclass" : "newobj",
									"numinlets" : 1,
									"numoutlets" : 1,
									"outlettype" : [ "" ],
									"patching_rect" : [ 311.666655999999989, 240.0, 60.0, 20.0 ],
									"text" : "prepend q"
								}

							}
, 							{
								"box" : 								{
									"fontname" : "Arial Bold",
									"fontsize" : 10.0,
									"id" : "obj-49",
									"maxclass" : "newobj",
									"numinlets" : 1,
									"numoutlets" : 1,
									"outlettype" : [ "" ],
									"patching_rect" : [ 208.333327999999995, 240.0, 74.0, 20.0 ],
									"text" : "prepend gain"
								}

							}
, 							{
								"box" : 								{
									"fontname" : "Arial Bold",
									"fontsize" : 10.0,
									"id" : "obj-48",
									"maxclass" : "newobj",
									"numinlets" : 1,
									"numoutlets" : 1,
									"outlettype" : [ "" ],
									"patching_rect" : [ 105.0, 240.0, 73.0, 20.0 ],
									"text" : "prepend freq"
								}

							}
, 							{
								"box" : 								{
									"fontname" : "Arial Bold",
									"fontsize" : 10.0,
									"id" : "obj-47",
									"maxclass" : "message",
									"numinlets" : 2,
									"numoutlets" : 1,
									"outlettype" : [ "" ],
									"patching_rect" : [ 196.333327999999995, 130.0, 41.0, 20.0 ],
									"text" : "1 1 0 0"
								}

							}
, 							{
								"box" : 								{
									"fontname" : "Arial Bold",
									"fontsize" : 10.0,
									"id" : "obj-46",
									"maxclass" : "message",
									"numinlets" : 2,
									"numoutlets" : 1,
									"outlettype" : [ "" ],
									"patching_rect" : [ 150.666672000000005, 130.0, 41.0, 20.0 ],
									"text" : "1 0 1 1"
								}

							}
, 							{
								"box" : 								{
									"fontname" : "Arial Bold",
									"fontsize" : 10.0,
									"id" : "obj-45",
									"maxclass" : "message",
									"numinlets" : 2,
									"numoutlets" : 1,
									"outlettype" : [ "" ],
									"patching_rect" : [ 105.0, 130.0, 41.0, 20.0 ],
									"text" : "0 1 1 0"
								}

							}
, 							{
								"box" : 								{
									"fontname" : "Arial Bold",
									"fontsize" : 10.0,
									"id" : "obj-43",
									"maxclass" : "newobj",
									"numinlets" : 1,
									"numoutlets" : 4,
									"outlettype" : [ "int", "int", "int", "int" ],
									"patching_rect" : [ 105.0, 165.0, 329.0, 20.0 ],
									"text" : "unpack 0 0 0 0"
								}

							}
, 							{
								"box" : 								{
									"fontname" : "Arial Bold",
									"fontsize" : 10.0,
									"id" : "obj-42",
									"maxclass" : "newobj",
									"numinlets" : 4,
									"numoutlets" : 4,
									"outlettype" : [ "", "", "", "" ],
									"patching_rect" : [ 105.0, 98.0, 156.0, 20.0 ],
									"text" : "route 1 2 3"
								}

							}
, 							{
								"box" : 								{
									"fontname" : "Arial Bold",
									"fontsize" : 10.0,
									"id" : "obj-41",
									"maxclass" : "message",
									"numinlets" : 2,
									"numoutlets" : 1,
									"outlettype" : [ "" ],
									"patching_rect" : [ 311.666655999999989, 197.0, 67.0, 20.0 ],
									"text" : "3 hidden $1"
								}

							}
, 							{
								"box" : 								{
									"fontname" : "Arial Bold",
									"fontsize" : 10.0,
									"id" : "obj-40",
									"maxclass" : "message",
									"numinlets" : 2,
									"numoutlets" : 1,
									"outlettype" : [ "" ],
									"patching_rect" : [ 208.333327999999995, 197.0, 67.0, 20.0 ],
									"text" : "2 hidden $1"
								}

							}
, 							{
								"box" : 								{
									"fontname" : "Arial Bold",
									"fontsize" : 10.0,
									"id" : "obj-39",
									"maxclass" : "message",
									"numinlets" : 2,
									"numoutlets" : 1,
									"outlettype" : [ "" ],
									"patching_rect" : [ 105.0, 197.0, 67.0, 20.0 ],
									"text" : "1 hidden $1"
								}

							}
, 							{
								"box" : 								{
									"fontname" : "Arial Bold",
									"fontsize" : 10.0,
									"id" : "obj-37",
									"maxclass" : "newobj",
									"numinlets" : 2,
									"numoutlets" : 2,
									"outlettype" : [ "", "" ],
									"patching_rect" : [ 105.0, 63.0, 74.0, 20.0 ],
									"text" : "route display"
								}

							}
, 							{
								"box" : 								{
									"comment" : "From JSUI",
									"id" : "obj-59",
									"index" : 1,
									"maxclass" : "inlet",
									"numinlets" : 0,
									"numoutlets" : 1,
									"outlettype" : [ "" ],
									"patching_rect" : [ 105.0, 18.0, 25.0, 25.0 ]
								}

							}
, 							{
								"box" : 								{
									"comment" : "To Controls",
									"id" : "obj-60",
									"index" : 1,
									"maxclass" : "outlet",
									"numinlets" : 1,
									"numoutlets" : 0,
									"patching_rect" : [ 26.0, 309.0, 25.0, 25.0 ]
								}

							}
 ],
						"lines" : [ 							{
								"patchline" : 								{
									"destination" : [ "obj-42", 0 ],
									"source" : [ "obj-37", 0 ]
								}

							}
, 							{
								"patchline" : 								{
									"destination" : [ "obj-48", 0 ],
									"midpoints" : [ 114.5, 227.0, 114.5, 227.0 ],
									"order" : 2,
									"source" : [ "obj-39", 0 ]
								}

							}
, 							{
								"patchline" : 								{
									"destination" : [ "obj-49", 0 ],
									"midpoints" : [ 114.5, 227.0, 217.833327999999995, 227.0 ],
									"order" : 1,
									"source" : [ "obj-39", 0 ]
								}

							}
, 							{
								"patchline" : 								{
									"destination" : [ "obj-50", 0 ],
									"midpoints" : [ 114.5, 227.0, 321.166655999999989, 227.0 ],
									"order" : 0,
									"source" : [ "obj-39", 0 ]
								}

							}
, 							{
								"patchline" : 								{
									"destination" : [ "obj-48", 0 ],
									"midpoints" : [ 217.833327999999995, 227.0, 114.5, 227.0 ],
									"order" : 2,
									"source" : [ "obj-40", 0 ]
								}

							}
, 							{
								"patchline" : 								{
									"destination" : [ "obj-49", 0 ],
									"midpoints" : [ 217.833327999999995, 227.0, 217.833327999999995, 227.0 ],
									"order" : 1,
									"source" : [ "obj-40", 0 ]
								}

							}
, 							{
								"patchline" : 								{
									"destination" : [ "obj-50", 0 ],
									"midpoints" : [ 217.833327999999995, 227.0, 321.166655999999989, 227.0 ],
									"order" : 0,
									"source" : [ "obj-40", 0 ]
								}

							}
, 							{
								"patchline" : 								{
									"destination" : [ "obj-48", 0 ],
									"midpoints" : [ 321.166655999999989, 227.0, 114.5, 227.0 ],
									"order" : 2,
									"source" : [ "obj-41", 0 ]
								}

							}
, 							{
								"patchline" : 								{
									"destination" : [ "obj-49", 0 ],
									"midpoints" : [ 321.166655999999989, 227.0, 217.833327999999995, 227.0 ],
									"order" : 1,
									"source" : [ "obj-41", 0 ]
								}

							}
, 							{
								"patchline" : 								{
									"destination" : [ "obj-50", 0 ],
									"midpoints" : [ 321.166655999999989, 227.0, 321.166655999999989, 227.0 ],
									"order" : 0,
									"source" : [ "obj-41", 0 ]
								}

							}
, 							{
								"patchline" : 								{
									"destination" : [ "obj-45", 0 ],
									"source" : [ "obj-42", 0 ]
								}

							}
, 							{
								"patchline" : 								{
									"destination" : [ "obj-46", 0 ],
									"source" : [ "obj-42", 1 ]
								}

							}
, 							{
								"patchline" : 								{
									"destination" : [ "obj-47", 0 ],
									"source" : [ "obj-42", 2 ]
								}

							}
, 							{
								"patchline" : 								{
									"destination" : [ "obj-39", 0 ],
									"source" : [ "obj-43", 0 ]
								}

							}
, 							{
								"patchline" : 								{
									"destination" : [ "obj-40", 0 ],
									"source" : [ "obj-43", 1 ]
								}

							}
, 							{
								"patchline" : 								{
									"destination" : [ "obj-41", 0 ],
									"source" : [ "obj-43", 2 ]
								}

							}
, 							{
								"patchline" : 								{
									"destination" : [ "obj-54", 0 ],
									"source" : [ "obj-43", 3 ]
								}

							}
, 							{
								"patchline" : 								{
									"destination" : [ "obj-43", 0 ],
									"source" : [ "obj-45", 0 ]
								}

							}
, 							{
								"patchline" : 								{
									"destination" : [ "obj-43", 0 ],
									"midpoints" : [ 160.166672000000005, 156.0, 114.5, 156.0 ],
									"source" : [ "obj-46", 0 ]
								}

							}
, 							{
								"patchline" : 								{
									"destination" : [ "obj-43", 0 ],
									"midpoints" : [ 205.833327999999995, 156.0, 114.5, 156.0 ],
									"source" : [ "obj-47", 0 ]
								}

							}
, 							{
								"patchline" : 								{
									"destination" : [ "obj-60", 0 ],
									"midpoints" : [ 114.5, 284.0, 35.5, 284.0 ],
									"source" : [ "obj-48", 0 ]
								}

							}
, 							{
								"patchline" : 								{
									"destination" : [ "obj-60", 0 ],
									"midpoints" : [ 217.833327999999995, 284.0, 35.5, 284.0 ],
									"source" : [ "obj-49", 0 ]
								}

							}
, 							{
								"patchline" : 								{
									"destination" : [ "obj-60", 0 ],
									"midpoints" : [ 321.166655999999989, 284.0, 35.5, 284.0 ],
									"source" : [ "obj-50", 0 ]
								}

							}
, 							{
								"patchline" : 								{
									"destination" : [ "obj-60", 0 ],
									"midpoints" : [ 424.5, 284.0, 35.5, 284.0 ],
									"source" : [ "obj-54", 0 ]
								}

							}
, 							{
								"patchline" : 								{
									"destination" : [ "obj-37", 0 ],
									"order" : 0,
									"source" : [ "obj-59", 0 ]
								}

							}
, 							{
								"patchline" : 								{
									"destination" : [ "obj-60", 0 ],
									"midpoints" : [ 114.5, 53.5, 35.5, 53.5 ],
									"order" : 1,
									"source" : [ "obj-59", 0 ]
								}

							}
 ],
						"originid" : "pat-177016",
						"bgcolor" : [ 0.56078431372549, 0.56078431372549, 0.56078431372549, 1.0 ],
						"editing_bgcolor" : [ 0.56078431372549, 0.56078431372549, 0.56078431372549, 1.0 ]
					}
,
					"patching_rect" : [ 78.70703125, 143.0, 56.0, 20.0 ],
					"saved_object_attributes" : 					{
						"editing_bgcolor" : [ 0.56078431372549, 0.56078431372549, 0.56078431372549, 1.0 ],
						"globalpatchername" : "",
						"locked_bgcolor" : [ 0.56078431372549, 0.56078431372549, 0.56078431372549, 1.0 ]
					}
,
					"text" : "p Display"
				}

			}
, 			{
				"box" : 				{
					"fontname" : "Arial Bold",
					"fontsize" : 10.0,
					"id" : "obj-35",
					"maxclass" : "newobj",
					"numinlets" : 4,
					"numoutlets" : 4,
					"outlettype" : [ "", "", "", "" ],
					"patching_rect" : [ 576.20703125, 209.0, 238.75, 20.0 ],
					"text" : "route 1 2 3"
				}

			}
, 			{
				"box" : 				{
					"fontname" : "Arial Bold",
					"fontsize" : 10.0,
					"id" : "obj-34",
					"maxclass" : "newobj",
					"numinlets" : 4,
					"numoutlets" : 4,
					"outlettype" : [ "", "", "", "" ],
					"patching_rect" : [ 327.45703125, 209.0, 238.75, 20.0 ],
					"text" : "route 1 2 3"
				}

			}
, 			{
				"box" : 				{
					"fontname" : "Arial Bold",
					"fontsize" : 10.0,
					"id" : "obj-116",
					"maxclass" : "newobj",
					"numinlets" : 2,
					"numoutlets" : 2,
					"outlettype" : [ "", "" ],
					"patching_rect" : [ 78.70703125, 364.0, 38.0, 20.0 ],
					"text" : "zl reg"
				}

			}
, 			{
				"box" : 				{
					"fontname" : "Arial Bold",
					"fontsize" : 10.0,
					"id" : "obj-31",
					"maxclass" : "newobj",
					"numinlets" : 4,
					"numoutlets" : 4,
					"outlettype" : [ "", "", "", "" ],
					"patching_rect" : [ 78.70703125, 209.0, 238.75, 20.0 ],
					"text" : "route 1 2 3"
				}

			}
, 			{
				"box" : 				{
					"fontname" : "Arial Bold",
					"fontsize" : 10.0,
					"id" : "obj-30",
					"maxclass" : "newobj",
					"numinlets" : 1,
					"numoutlets" : 1,
					"outlettype" : [ "" ],
					"patching_rect" : [ 576.20703125, 329.0, 74.0, 20.0 ],
					"text" : "prepend setq"
				}

			}
, 			{
				"box" : 				{
					"fontname" : "Arial Bold",
					"fontsize" : 10.0,
					"id" : "obj-29",
					"maxclass" : "newobj",
					"numinlets" : 1,
					"numoutlets" : 1,
					"outlettype" : [ "" ],
					"patching_rect" : [ 327.45703125, 329.0, 89.0, 20.0 ],
					"text" : "prepend setgain"
				}

			}
, 			{
				"box" : 				{
					"fontname" : "Arial Bold",
					"fontsize" : 10.0,
					"id" : "obj-28",
					"maxclass" : "newobj",
					"numinlets" : 1,
					"numoutlets" : 1,
					"outlettype" : [ "" ],
					"patching_rect" : [ 78.70703125, 329.0, 87.0, 20.0 ],
					"text" : "prepend setfreq"
				}

			}
, 			{
				"box" : 				{
					"fontname" : "Arial Bold",
					"fontsize" : 10.0,
					"id" : "obj-27",
					"maxclass" : "newobj",
					"numinlets" : 1,
					"numoutlets" : 1,
					"outlettype" : [ "" ],
					"patching_rect" : [ 722.70703125, 296.0, 59.0, 20.0 ],
					"text" : "prepend 3"
				}

			}
, 			{
				"box" : 				{
					"fontname" : "Arial Bold",
					"fontsize" : 10.0,
					"id" : "obj-26",
					"maxclass" : "newobj",
					"numinlets" : 1,
					"numoutlets" : 1,
					"outlettype" : [ "" ],
					"patching_rect" : [ 649.45703125, 296.0, 59.0, 20.0 ],
					"text" : "prepend 2"
				}

			}
, 			{
				"box" : 				{
					"fontname" : "Arial Bold",
					"fontsize" : 10.0,
					"id" : "obj-25",
					"maxclass" : "newobj",
					"numinlets" : 1,
					"numoutlets" : 1,
					"outlettype" : [ "" ],
					"patching_rect" : [ 576.20703125, 296.0, 59.0, 20.0 ],
					"text" : "prepend 1"
				}

			}
, 			{
				"box" : 				{
					"fontname" : "Arial Bold",
					"fontsize" : 10.0,
					"id" : "obj-24",
					"maxclass" : "newobj",
					"numinlets" : 1,
					"numoutlets" : 1,
					"outlettype" : [ "" ],
					"patching_rect" : [ 473.95703125, 296.0, 59.0, 20.0 ],
					"text" : "prepend 3"
				}

			}
, 			{
				"box" : 				{
					"fontname" : "Arial Bold",
					"fontsize" : 10.0,
					"id" : "obj-119",
					"maxclass" : "newobj",
					"numinlets" : 1,
					"numoutlets" : 1,
					"outlettype" : [ "" ],
					"patching_rect" : [ 400.70703125, 296.0, 59.0, 20.0 ],
					"text" : "prepend 2"
				}

			}
, 			{
				"box" : 				{
					"fontname" : "Arial Bold",
					"fontsize" : 10.0,
					"id" : "obj-22",
					"maxclass" : "newobj",
					"numinlets" : 1,
					"numoutlets" : 1,
					"outlettype" : [ "" ],
					"patching_rect" : [ 327.45703125, 296.0, 59.0, 20.0 ],
					"text" : "prepend 1"
				}

			}
, 			{
				"box" : 				{
					"fontname" : "Arial Bold",
					"fontsize" : 10.0,
					"id" : "obj-21",
					"maxclass" : "newobj",
					"numinlets" : 1,
					"numoutlets" : 1,
					"outlettype" : [ "" ],
					"patching_rect" : [ 225.20703125, 296.0, 59.0, 20.0 ],
					"text" : "prepend 3"
				}

			}
, 			{
				"box" : 				{
					"fontname" : "Arial Bold",
					"fontsize" : 10.0,
					"id" : "obj-19",
					"maxclass" : "newobj",
					"numinlets" : 1,
					"numoutlets" : 1,
					"outlettype" : [ "" ],
					"patching_rect" : [ 151.95703125, 296.0, 59.0, 20.0 ],
					"text" : "prepend 2"
				}

			}
, 			{
				"box" : 				{
					"fontname" : "Arial Bold",
					"fontsize" : 10.0,
					"id" : "obj-17",
					"maxclass" : "newobj",
					"numinlets" : 1,
					"numoutlets" : 1,
					"outlettype" : [ "" ],
					"patching_rect" : [ 78.70703125, 296.0, 59.0, 20.0 ],
					"text" : "prepend 1"
				}

			}
, 			{
				"box" : 				{
					"fontname" : "Arial Bold",
					"fontsize" : 10.0,
					"id" : "obj-16",
					"maxclass" : "newobj",
					"numinlets" : 2,
					"numoutlets" : 2,
					"outlettype" : [ "", "" ],
					"patching_rect" : [ 576.20703125, 177.0, 45.0, 20.0 ],
					"text" : "route q"
				}

			}
, 			{
				"box" : 				{
					"fontname" : "Arial Bold",
					"fontsize" : 10.0,
					"id" : "obj-120",
					"maxclass" : "newobj",
					"numinlets" : 2,
					"numoutlets" : 2,
					"outlettype" : [ "", "" ],
					"patching_rect" : [ 327.45703125, 177.0, 60.0, 20.0 ],
					"text" : "route gain"
				}

			}
, 			{
				"box" : 				{
					"fontname" : "Arial Bold",
					"fontsize" : 10.0,
					"id" : "obj-14",
					"maxclass" : "newobj",
					"numinlets" : 2,
					"numoutlets" : 2,
					"outlettype" : [ "", "" ],
					"patching_rect" : [ 78.70703125, 177.0, 58.0, 20.0 ],
					"text" : "route freq"
				}

			}
, 			{
				"box" : 				{
					"angle" : 270.0,
					"bgcolor" : [ 0.8823529412, 0.8823529412, 0.8823529412, 1.0 ],
					"hidden" : 1,
					"id" : "obj-4",
					"maxclass" : "panel",
					"mode" : 0,
					"numinlets" : 1,
					"numoutlets" : 0,
					"patching_rect" : [ 507.5, 35.0, 128.0, 128.0 ],
					"presentation" : 1,
					"presentation_rect" : [ 0.0, 0.0, 280.263155221939087, 157.236840605735779 ],
					"proportion" : 0.5,
					"rounded" : 1
				}

			}
 ],
		"lines" : [ 			{
				"patchline" : 				{
					"destination" : [ "obj-64", 0 ],
					"source" : [ "obj-109", 0 ]
				}

			}
, 			{
				"patchline" : 				{
					"destination" : [ "obj-24", 0 ],
					"order" : 1,
					"source" : [ "obj-110", 0 ]
				}

			}
, 			{
				"patchline" : 				{
					"destination" : [ "obj-79", 0 ],
					"order" : 0,
					"source" : [ "obj-110", 0 ]
				}

			}
, 			{
				"patchline" : 				{
					"destination" : [ "obj-119", 0 ],
					"order" : 1,
					"source" : [ "obj-111", 0 ]
				}

			}
, 			{
				"patchline" : 				{
					"destination" : [ "obj-80", 0 ],
					"order" : 0,
					"source" : [ "obj-111", 0 ]
				}

			}
, 			{
				"patchline" : 				{
					"destination" : [ "obj-22", 0 ],
					"order" : 1,
					"source" : [ "obj-112", 0 ]
				}

			}
, 			{
				"patchline" : 				{
					"destination" : [ "obj-81", 0 ],
					"order" : 0,
					"source" : [ "obj-112", 0 ]
				}

			}
, 			{
				"patchline" : 				{
					"destination" : [ "obj-19", 0 ],
					"order" : 1,
					"source" : [ "obj-114", 0 ]
				}

			}
, 			{
				"patchline" : 				{
					"destination" : [ "obj-73", 0 ],
					"order" : 0,
					"source" : [ "obj-114", 0 ]
				}

			}
, 			{
				"patchline" : 				{
					"destination" : [ "obj-17", 0 ],
					"order" : 1,
					"source" : [ "obj-115", 0 ]
				}

			}
, 			{
				"patchline" : 				{
					"destination" : [ "obj-72", 0 ],
					"order" : 0,
					"source" : [ "obj-115", 0 ]
				}

			}
, 			{
				"patchline" : 				{
					"destination" : [ "obj-109", 0 ],
					"midpoints" : [ 88.20703125, 391.0, 2.0, 391.0, 2.0, 2.0, 88.20703125, 2.0 ],
					"source" : [ "obj-116", 0 ]
				}

			}
, 			{
				"patchline" : 				{
					"destination" : [ "obj-29", 0 ],
					"midpoints" : [ 410.20703125, 322.0, 336.95703125, 322.0 ],
					"source" : [ "obj-119", 0 ]
				}

			}
, 			{
				"patchline" : 				{
					"destination" : [ "obj-34", 0 ],
					"source" : [ "obj-120", 0 ]
				}

			}
, 			{
				"patchline" : 				{
					"destination" : [ "obj-31", 0 ],
					"source" : [ "obj-14", 0 ]
				}

			}
, 			{
				"patchline" : 				{
					"destination" : [ "obj-35", 0 ],
					"source" : [ "obj-16", 0 ]
				}

			}
, 			{
				"patchline" : 				{
					"destination" : [ "obj-28", 0 ],
					"midpoints" : [ 88.20703125, 322.0, 88.20703125, 322.0 ],
					"source" : [ "obj-17", 0 ]
				}

			}
, 			{
				"patchline" : 				{
					"destination" : [ "obj-28", 0 ],
					"midpoints" : [ 161.45703125, 322.0, 88.20703125, 322.0 ],
					"source" : [ "obj-19", 0 ]
				}

			}
, 			{
				"patchline" : 				{
					"destination" : [ "obj-28", 0 ],
					"midpoints" : [ 234.70703125, 322.0, 88.20703125, 322.0 ],
					"source" : [ "obj-21", 0 ]
				}

			}
, 			{
				"patchline" : 				{
					"destination" : [ "obj-29", 0 ],
					"midpoints" : [ 336.95703125, 322.0, 336.95703125, 322.0 ],
					"source" : [ "obj-22", 0 ]
				}

			}
, 			{
				"patchline" : 				{
					"destination" : [ "obj-29", 0 ],
					"midpoints" : [ 483.45703125, 322.0, 336.95703125, 322.0 ],
					"source" : [ "obj-24", 0 ]
				}

			}
, 			{
				"patchline" : 				{
					"destination" : [ "obj-30", 0 ],
					"midpoints" : [ 585.70703125, 322.0, 585.70703125, 322.0 ],
					"source" : [ "obj-25", 0 ]
				}

			}
, 			{
				"patchline" : 				{
					"destination" : [ "obj-30", 0 ],
					"midpoints" : [ 658.95703125, 322.0, 585.70703125, 322.0 ],
					"source" : [ "obj-26", 0 ]
				}

			}
, 			{
				"patchline" : 				{
					"destination" : [ "obj-30", 0 ],
					"midpoints" : [ 732.20703125, 322.0, 585.70703125, 322.0 ],
					"source" : [ "obj-27", 0 ]
				}

			}
, 			{
				"patchline" : 				{
					"destination" : [ "obj-116", 0 ],
					"source" : [ "obj-28", 0 ]
				}

			}
, 			{
				"patchline" : 				{
					"destination" : [ "obj-116", 0 ],
					"midpoints" : [ 336.95703125, 356.0, 88.20703125, 356.0 ],
					"source" : [ "obj-29", 0 ]
				}

			}
, 			{
				"patchline" : 				{
					"destination" : [ "obj-116", 0 ],
					"midpoints" : [ 585.70703125, 356.0, 88.20703125, 356.0 ],
					"source" : [ "obj-30", 0 ]
				}

			}
, 			{
				"patchline" : 				{
					"destination" : [ "obj-114", 0 ],
					"source" : [ "obj-31", 1 ]
				}

			}
, 			{
				"patchline" : 				{
					"destination" : [ "obj-115", 0 ],
					"source" : [ "obj-31", 0 ]
				}

			}
, 			{
				"patchline" : 				{
					"destination" : [ "obj-49", 0 ],
					"source" : [ "obj-31", 2 ]
				}

			}
, 			{
				"patchline" : 				{
					"destination" : [ "obj-110", 0 ],
					"source" : [ "obj-34", 2 ]
				}

			}
, 			{
				"patchline" : 				{
					"destination" : [ "obj-111", 0 ],
					"source" : [ "obj-34", 1 ]
				}

			}
, 			{
				"patchline" : 				{
					"destination" : [ "obj-112", 0 ],
					"source" : [ "obj-34", 0 ]
				}

			}
, 			{
				"patchline" : 				{
					"destination" : [ "obj-56", 0 ],
					"source" : [ "obj-35", 0 ]
				}

			}
, 			{
				"patchline" : 				{
					"destination" : [ "obj-57", 0 ],
					"source" : [ "obj-35", 1 ]
				}

			}
, 			{
				"patchline" : 				{
					"destination" : [ "obj-58", 0 ],
					"source" : [ "obj-35", 2 ]
				}

			}
, 			{
				"patchline" : 				{
					"destination" : [ "obj-21", 0 ],
					"order" : 1,
					"source" : [ "obj-49", 0 ]
				}

			}
, 			{
				"patchline" : 				{
					"destination" : [ "obj-78", 0 ],
					"order" : 0,
					"source" : [ "obj-49", 0 ]
				}

			}
, 			{
				"patchline" : 				{
					"destination" : [ "obj-1", 0 ],
					"order" : 7,
					"source" : [ "obj-5", 0 ]
				}

			}
, 			{
				"patchline" : 				{
					"destination" : [ "obj-109", 0 ],
					"order" : 13,
					"source" : [ "obj-5", 0 ]
				}

			}
, 			{
				"patchline" : 				{
					"destination" : [ "obj-110", 0 ],
					"order" : 4,
					"source" : [ "obj-5", 0 ]
				}

			}
, 			{
				"patchline" : 				{
					"destination" : [ "obj-111", 0 ],
					"order" : 5,
					"source" : [ "obj-5", 0 ]
				}

			}
, 			{
				"patchline" : 				{
					"destination" : [ "obj-112", 0 ],
					"order" : 9,
					"source" : [ "obj-5", 0 ]
				}

			}
, 			{
				"patchline" : 				{
					"destination" : [ "obj-114", 0 ],
					"order" : 11,
					"source" : [ "obj-5", 0 ]
				}

			}
, 			{
				"patchline" : 				{
					"destination" : [ "obj-115", 0 ],
					"order" : 12,
					"source" : [ "obj-5", 0 ]
				}

			}
, 			{
				"patchline" : 				{
					"destination" : [ "obj-2", 0 ],
					"order" : 8,
					"source" : [ "obj-5", 0 ]
				}

			}
, 			{
				"patchline" : 				{
					"destination" : [ "obj-3", 0 ],
					"order" : 6,
					"source" : [ "obj-5", 0 ]
				}

			}
, 			{
				"patchline" : 				{
					"destination" : [ "obj-4", 0 ],
					"order" : 3,
					"source" : [ "obj-5", 0 ]
				}

			}
, 			{
				"patchline" : 				{
					"destination" : [ "obj-49", 0 ],
					"order" : 10,
					"source" : [ "obj-5", 0 ]
				}

			}
, 			{
				"patchline" : 				{
					"destination" : [ "obj-56", 0 ],
					"order" : 2,
					"source" : [ "obj-5", 0 ]
				}

			}
, 			{
				"patchline" : 				{
					"destination" : [ "obj-57", 0 ],
					"order" : 1,
					"source" : [ "obj-5", 0 ]
				}

			}
, 			{
				"patchline" : 				{
					"destination" : [ "obj-58", 0 ],
					"order" : 0,
					"source" : [ "obj-5", 0 ]
				}

			}
, 			{
				"patchline" : 				{
					"destination" : [ "obj-25", 0 ],
					"order" : 1,
					"source" : [ "obj-56", 0 ]
				}

			}
, 			{
				"patchline" : 				{
					"destination" : [ "obj-85", 0 ],
					"order" : 0,
					"source" : [ "obj-56", 0 ]
				}

			}
, 			{
				"patchline" : 				{
					"destination" : [ "obj-26", 0 ],
					"order" : 1,
					"source" : [ "obj-57", 0 ]
				}

			}
, 			{
				"patchline" : 				{
					"destination" : [ "obj-84", 0 ],
					"order" : 0,
					"source" : [ "obj-57", 0 ]
				}

			}
, 			{
				"patchline" : 				{
					"destination" : [ "obj-27", 0 ],
					"order" : 1,
					"source" : [ "obj-58", 0 ]
				}

			}
, 			{
				"patchline" : 				{
					"destination" : [ "obj-83", 0 ],
					"order" : 0,
					"source" : [ "obj-58", 0 ]
				}

			}
, 			{
				"patchline" : 				{
					"destination" : [ "obj-120", 0 ],
					"midpoints" : [ 88.20703125, 172.0, 336.95703125, 172.0 ],
					"order" : 1,
					"source" : [ "obj-64", 0 ]
				}

			}
, 			{
				"patchline" : 				{
					"destination" : [ "obj-14", 0 ],
					"order" : 2,
					"source" : [ "obj-64", 0 ]
				}

			}
, 			{
				"patchline" : 				{
					"destination" : [ "obj-16", 0 ],
					"midpoints" : [ 88.20703125, 172.0, 585.70703125, 172.0 ],
					"order" : 0,
					"source" : [ "obj-64", 0 ]
				}

			}
 ],
		"originid" : "pat-177014"
	}

}
